<svg xmlns="http://www.w3.org/2000/svg" width="410" height="404" viewBox="0 0 410 404" fill="none">
  <path d="M399.641 59.5246L215.643 388.545C211.844 395.338 202.084 395.378 198.228 388.618L10.5817 59.5563C6.38087 52.1896 12.6802 43.2665 21.0281 44.7586L205.223 77.6824C206.398 77.8924 207.601 77.8904 208.776 77.6763L389.119 44.8058C397.439 43.2894 403.768 52.1434 399.641 59.5246Z" fill="url(#paint0_linear_1_40)"/>
  <path d="M292.965 1.5744L156.801 28.2552C154.563 28.6937 152.906 30.6302 152.771 32.9076L144.395 174.33C144.198 177.757 147.258 180.425 150.551 179.719L188.42 171.794C191.969 171.037 195.172 174.053 194.443 177.622L183.18 232.777C182.422 236.489 185.907 239.661 189.532 238.56L212.947 231.446C216.577 230.344 220.065 233.525 219.297 237.241L201.398 324.682C200.278 330.003 207.486 332.891 210.492 328.166L212.5 325.019L323.418 102.428C325.051 99.1441 322.267 95.385 318.622 96.0949L280.697 103.373C277.05 104.083 274.269 100.318 275.922 97.0329L304.27 39.1816C305.924 35.8945 303.14 32.1277 299.491 32.8394L261.575 40.1161C257.923 40.8281 255.144 37.0561 256.805 33.768L301.869 44.8052C305.512 45.6791 309.046 42.3941 307.863 38.7888L296.328 1.85789C295.681 -0.312621 294.122 -1.98186 292.12 -1.57982e-05L292.965 1.5744Z" fill="url(#paint1_linear_1_40)"/>
  <defs>
    <linearGradient id="paint0_linear_1_40" x1="6.00017" y1="32.9999" x2="235" y2="344" gradientUnits="userSpaceOnUse">
      <stop stop-color="#41D1FF"/>
      <stop offset="1" stop-color="#BD34FE"/>
    </linearGradient>
    <linearGradient id="paint1_linear_1_40" x1="194.651" y1="8.81818" x2="236.076" y2="292.989" gradientUnits="userSpaceOnUse">
      <stop stop-color="#FFEA83"/>
      <stop offset="0.0833333" stop-color="#FFDD35"/>
      <stop offset="1" stop-color="#FFA800"/>
    </linearGradient>
  </defs>
</svg>
